<?xml version="1.0"?>
<svg width="250mm" height="200mm" viewBox="0 0   2750    1500"
     xmlns="http://www.w3.org/2000/svg"
     xmlns:xlink="http://www.w3.org/1999/xlink"
     xmlns:ev="http://www.w3.org/2001/xml-events">
<g font-family="Verdana" font-size="8" >
  <line x1="   300" y1="   470" x2="   300" y2="   550" style = "stroke:silver  ;"/>
  <line x1="   300" y1="   470" x2="   300" y2="   630" style = "stroke:silver  ;"/>
  <line x1="   300" y1="   550" x2="   300" y2="   630" style = "stroke:silver  ;"/>
  <rect x="  1700" y="   180" width="   200" height="    20" style = "fill:chartreuse; stroke: Black;"/>     1
  <text x="  1702" y="   193">THERMAL ZONE 1</text>
  <rect x="   700" y="   260" width="   200" height="    20" style = "fill:orange; stroke: Black;"/>     4
  <text  x="   702" y="   268">53GAL ELECTRICITY WATER HEATER -
  <tspan x="   702" y="   276">15KBTU/HR</tspan></text>
  <rect x="   200" y="   460" width="   200" height="    20" style = "fill:snow; stroke: Black;"/>     5
  <text x="   202" y="   473">OutdoorAir:NodeList</text>
  <rect x="   200" y="   540" width="   200" height="    20" style = "fill:snow; stroke: Black;"/>     6
  <text x="   202" y="   553">OutdoorAir:NodeList</text>
  <rect x="   200" y="   620" width="   200" height="    20" style = "fill:snow; stroke: Black;"/>     7
  <text x="   202" y="   633">OutdoorAir:NodeList</text>
  <rect x="   700" y="   300" width="   200" height="    20" style = "fill:wheat; stroke: Black;"/>    10
  <text x="   702" y="   313">PIPE ADIABATIC 1</text>
  <rect x="  1200" y="   300" width="   200" height="    20" style = "fill:wheat; stroke: Black;"/>    11
  <text x="  1202" y="   313">PIPE ADIABATIC 3</text>
  <rect x="  1450" y="   300" width="   200" height="    20" style = "fill:wheat; stroke: Black;"/>    12
  <text x="  1452" y="   313">PLANT LOOP 1 DEMAND INLET PIPE</text>
  <rect x="  1950" y="   300" width="   200" height="    20" style = "fill:wheat; stroke: Black;"/>    13
  <text x="  1952" y="   313">PIPE ADIABATIC 2</text>
  <rect x="  1950" y="   380" width="   200" height="    20" style = "fill:wheat; stroke: Black;"/>    14
  <text x="  1952" y="   393">PLANT LOOP 1 DEMAND BYPASS PIPE</text>
  <rect x="  2450" y="   380" width="   200" height="    20" style = "fill:wheat; stroke: Black;"/>    15
  <text x="  2452" y="   393">PIPE ADIABATIC 4</text>
  <rect x="  1950" y="   340" width="   200" height="    20" style = "fill:wheat; stroke: Black;"/>    16
  <text x="  1952" y="   353">WUC 0.0GPM AT 140F</text>
  <rect x="  1700" y="   300" width="   200" height="    20" style = "fill:wheat; stroke: Black;"/>    17
  <text x="  1702" y="   313">PLANT LOOP 1 DEMAND SPLITTER</text>
  <rect x="  2200" y="   380" width="   200" height="    20" style = "fill:wheat; stroke: Black;"/>    18
  <text x="  2202" y="   393">PLANT LOOP 1 DEMAND MIXER</text>
  <rect x="   450" y="   260" width="   200" height="    20" style = "fill:wheat; stroke: Black;"/>    19
  <text x="   452" y="   273">PLANT LOOP 1 SUPPLY SPLITTER</text>
  <rect x="   950" y="   300" width="   200" height="    20" style = "fill:wheat; stroke: Black;"/>    20
  <text x="   952" y="   313">PLANT LOOP 1 SUPPLY MIXER</text>
  <rect x="  1200" y="    20" width="   200" height="    20" style = "fill:wheat; stroke: Black;"/>    21
  <text x="  1202" y="    33">AIR LOOP HVAC ZONE SPLITTER 1</text>
  <rect x="  1200" y="   100" width="   200" height="    20" style = "fill:wheat; stroke: Black;"/>    22
  <text x="  1202" y="   113">AIR LOOP HVAC ZONE SPLITTER 2</text>
  <rect x="  1200" y="   180" width="   200" height="    20" style = "fill:wheat; stroke: Black;"/>    23
  <text x="  1202" y="   193">AIR LOOP HVAC ZONE SPLITTER 3</text>
  <rect x="  1450" y="   180" width="   200" height="    20" style = "fill:snow; stroke: Black;"/>    24
  <text x="  1452" y="   193">DIFFUSER 2</text>
  <rect x="  1450" y="    20" width="   200" height="    20" style = "fill:snow; stroke: Black;"/>    25
  <text x="  1452" y="    33">DIFFUSER</text>
  <rect x="  1450" y="   100" width="   200" height="    20" style = "fill:snow; stroke: Black;"/>    26
  <text x="  1452" y="   113">DIFFUSER 1</text>
  <rect x="  1950" y="    20" width="   200" height="    20" style = "fill:wheat; stroke: Black;"/>    27
  <text x="  1952" y="    33">AIR LOOP HVAC ZONE MIXER 1</text>
  <rect x="  1950" y="   100" width="   200" height="    20" style = "fill:wheat; stroke: Black;"/>    28
  <text x="  1952" y="   113">AIR LOOP HVAC ZONE MIXER 2</text>
  <rect x="  1950" y="   180" width="   200" height="    20" style = "fill:wheat; stroke: Black;"/>    29
  <text x="  1952" y="   193">AIR LOOP HVAC ZONE MIXER 3</text>
  <rect x="   200" y="    20" width="   200" height="    20" style = "fill:lawngreen; stroke: Black;"/>    30
  <text x="   202" y="    33">OA SYSTEM CU-1 OUTDOOR AIR MIXER</text>
  <rect x="   200" y="   100" width="   200" height="    20" style = "fill:lawngreen; stroke: Black;"/>    31
  <text x="   202" y="   113">OA SYSTEM CU-2 OUTDOOR AIR MIXER</text>
  <rect x="   200" y="   180" width="   200" height="    20" style = "fill:lawngreen; stroke: Black;"/>    32
  <text x="   202" y="   193">OA SYSTEM CU-3 OUTDOOR AIR MIXER</text>
  <rect x="   450" y="    20" width="   200" height="    20" style = "fill:silver; stroke: Black;"/>    33
  <text x="   452" y="    33">FAN ON OFF 8</text>
  <rect x="   450" y="   100" width="   200" height="    20" style = "fill:silver; stroke: Black;"/>    34
  <text x="   452" y="   113">FAN ON OFF 9</text>
  <rect x="   450" y="   180" width="   200" height="    20" style = "fill:silver; stroke: Black;"/>    35
  <text x="   452" y="   193">FAN ON OFF 10</text>
  <rect x="   950" y="    20" width="   200" height="    20" style = "fill:salmon; stroke: Black;"/>    36
  <text x="   952" y="    33">ELEC HTG COIL 15 CU-1</text>
  <rect x="   950" y="   100" width="   200" height="    20" style = "fill:salmon; stroke: Black;"/>    37
  <text x="   952" y="   113">ELEC HTG COIL 15</text>
  <rect x="   950" y="   180" width="   200" height="    20" style = "fill:salmon; stroke: Black;"/>    38
  <text x="   952" y="   193">ELEC HTG COIL 16</text>
  <rect x="   700" y="    20" width="   200" height="    20" style = "fill:skyblue; stroke: Black;"/>    39
  <text x="   702" y="    33">1 SPD DX CLG COIL 7</text>
  <rect x="   700" y="   100" width="   200" height="    20" style = "fill:skyblue; stroke: Black;"/>    40
  <text x="   702" y="   113">1 SPD DX CLG COIL 8</text>
  <rect x="   700" y="   180" width="   200" height="    20" style = "fill:skyblue; stroke: Black;"/>    41
  <text x="   702" y="   193">1 SPD DX CLG COIL 9</text>
  <rect x="   200" y="   260" width="   200" height="    20" style = "fill:springgreen; stroke: Black;"/>    45
  <text x="   202" y="   273">CIRCULATOR PUMP</text>
  <rect x="  1700" y="    20" width="   200" height="    20" style = "fill:chartreuse; stroke: Black;"/>    46
  <text x="  1702" y="    33">THERMAL ZONE 2</text>
  <rect x="  1700" y="   100" width="   200" height="    20" style = "fill:chartreuse; stroke: Black;"/>    47
  <text x="  1702" y="   113">THERMAL ZONE 3</text>
  <line x1="   900" y1="   270" x2="   950" y2="   310" style = "stroke: Black;"/>
  <line x1="   900" y1="   310" x2="   950" y2="   310" style = "stroke: Black;"/>
  <line x1="  1400" y1="   310" x2="  1450" y2="   310" style = "stroke: Black;"/>
  <line x1="  1650" y1="   310" x2="  1700" y2="   310" style = "stroke: Black;"/>
  <line x1="  2150" y1="   310" x2="  2200" y2="   390" style = "stroke: Black;"/>
  <line x1="  2150" y1="   390" x2="  2200" y2="   390" style = "stroke: Black;"/>
  <line x1="  2150" y1="   350" x2="  2200" y2="   390" style = "stroke: Black;"/>
  <line x1="  1900" y1="   310" x2="  1950" y2="   310" style = "stroke: Black;"/>
  <line x1="  1900" y1="   310" x2="  1950" y2="   350" style = "stroke: Black;"/>
  <line x1="  1900" y1="   310" x2="  1950" y2="   390" style = "stroke: Black;"/>
  <line x1="  2400" y1="   390" x2="  2450" y2="   390" style = "stroke: Black;"/>
  <line x1="   650" y1="   270" x2="   700" y2="   270" style = "stroke: Black;"/>
  <line x1="   650" y1="   270" x2="   700" y2="   310" style = "stroke: Black;"/>
  <line x1="  1150" y1="   310" x2="  1200" y2="   310" style = "stroke: Black;"/>
  <line x1="  1400" y1="    30" x2="  1450" y2="    30" style = "stroke: Black;"/>
  <line x1="  1400" y1="   110" x2="  1450" y2="   110" style = "stroke: Black;"/>
  <line x1="  1400" y1="   190" x2="  1450" y2="   190" style = "stroke: Black;"/>
  <line x1="  1650" y1="   190" x2="  1700" y2="   190" style = "stroke: Black;"/>
  <line x1="  1650" y1="    30" x2="  1700" y2="    30" style = "stroke: Black;"/>
  <line x1="  1650" y1="   110" x2="  1700" y2="   110" style = "stroke: Black;"/>
  <line x1="   400" y1="    30" x2="   450" y2="    30" style = "stroke: Black;"/>
  <line x1="   400" y1="   110" x2="   450" y2="   110" style = "stroke: Black;"/>
  <line x1="   400" y1="   190" x2="   450" y2="   190" style = "stroke: Black;"/>
  <line x1="   650" y1="    30" x2="   700" y2="    30" style = "stroke: Black;"/>
  <line x1="   650" y1="   110" x2="   700" y2="   110" style = "stroke: Black;"/>
  <line x1="   650" y1="   190" x2="   700" y2="   190" style = "stroke: Black;"/>
  <line x1="  1150" y1="    30" x2="  1200" y2="    30" style = "stroke: Black;"/>
  <line x1="  1150" y1="   110" x2="  1200" y2="   110" style = "stroke: Black;"/>
  <line x1="  1150" y1="   190" x2="  1200" y2="   190" style = "stroke: Black;"/>
  <line x1="   900" y1="    30" x2="   950" y2="    30" style = "stroke: Black;"/>
  <line x1="   900" y1="   110" x2="   950" y2="   110" style = "stroke: Black;"/>
  <line x1="   900" y1="   190" x2="   950" y2="   190" style = "stroke: Black;"/>
  <line x1="   400" y1="   270" x2="   450" y2="   270" style = "stroke: Black;"/>
  <line x1="  1900" y1="   190" x2="  1950" y2="   190" style = "stroke: Black;"/>
  <line x1="  1900" y1="    30" x2="  1950" y2="    30" style = "stroke: Black;"/>
  <line x1="  1900" y1="   110" x2="  1950" y2="   110" style = "stroke: Black;"/>
  <line x1="   200" y1="    30" x2="   175" y2="    30" style = "stroke: Black;"/>
  <line x1="   175" y1="    30" x2="   175" y2="     0" style = "stroke: Black;"/>
  <line x1="   175" y1="     0" x2="  2175" y2="     0" style = "stroke: Black;"/>
  <line x1="  2175" y1="     0" x2="  2175" y2="    30" style = "stroke: Black;"/>
  <line x1="  2175" y1="    30" x2="  2150" y2="    30" style = "stroke: Black;"/>
  <line x1="   200" y1="   110" x2="   175" y2="   110" style = "stroke: Black;"/>
  <line x1="   175" y1="   110" x2="   175" y2="    80" style = "stroke: Black;"/>
  <line x1="   175" y1="    80" x2="  2175" y2="    80" style = "stroke: Black;"/>
  <line x1="  2175" y1="    80" x2="  2175" y2="   110" style = "stroke: Black;"/>
  <line x1="  2175" y1="   110" x2="  2150" y2="   110" style = "stroke: Black;"/>
  <line x1="   200" y1="   190" x2="   175" y2="   190" style = "stroke: Black;"/>
  <line x1="   175" y1="   190" x2="   175" y2="   160" style = "stroke: Black;"/>
  <line x1="   175" y1="   160" x2="  2175" y2="   160" style = "stroke: Black;"/>
  <line x1="  2175" y1="   160" x2="  2175" y2="   190" style = "stroke: Black;"/>
  <line x1="  2175" y1="   190" x2="  2150" y2="   190" style = "stroke: Black;"/>
  <line x1="   200" y1="   270" x2="   175" y2="   270" style = "stroke: Black;"/>
  <line x1="   175" y1="   270" x2="   175" y2="   240" style = "stroke: Black;"/>
  <line x1="   175" y1="   240" x2="  2675" y2="   240" style = "stroke: Black;"/>
  <line x1="  2675" y1="   240" x2="  2675" y2="   390" style = "stroke: Black;"/>
  <line x1="  2675" y1="   390" x2="  2650" y2="   390" style = "stroke: Black;"/>
  <text x="   200" y="   680">Unused Non-Parent Objects:</text>
  <text x="   220" y="   700">OutdoorAir:Node</text>
  <text x="   220" y="   720">SERVICE HOT WATER SETPOINT MANAGER</text>
  <text x="   220" y="   740">OUTDOOR AIR CONTROLLER</text>
  <text x="   220" y="   760">OUTDOOR AIR CONTROLLER 1</text>
  <text x="   220" y="   780">OUTDOOR AIR CONTROLLER 2</text>
  <text x="   200" y="   820">
The following are not supported: objects related to controls or ZoneHVAC:IdealLoadsAirSystem</text>
</g>
</svg>
